<svg width="101" height="91" viewBox="0 0 101 91" fill="none" xmlns="http://www.w3.org/2000/svg">
<g clip-path="url(#clip0_739_338)">
<path d="M1.14844 65.8741V54.3945H50.5005V65.8741" stroke="#1C49FA" stroke-width="3" stroke-miterlimit="10"/>
<path d="M50.5005 66.1035H1.14844V77.4683H50.5005V66.1035Z" stroke="#1C49FA" stroke-width="3" stroke-miterlimit="10"/>
<path d="M50.5005 77.9277V89.2925H1.14844V77.9277" stroke="#1C49FA" stroke-width="3" stroke-miterlimit="10"/>
<path d="M99.852 66.1035H50.5V77.4683H99.852V66.1035Z" stroke="#1C49FA" stroke-width="3" stroke-miterlimit="10"/>
<path d="M99.852 77.9277V89.2925H50.5V77.9277" stroke="#1C49FA" stroke-width="3" stroke-miterlimit="10"/>
<path d="M75.1758 13.1831V66.104" stroke="#1C49FA" stroke-width="3" stroke-miterlimit="10"/>
<path d="M75.1756 31.8946H68.7781C64.2084 31.8946 60.5527 28.2211 60.5527 23.6293V17.0859H67.0645C71.6341 17.0859 75.2898 20.7594 75.2898 25.3512V31.8946H75.1756Z" stroke="#1C49FA" stroke-width="3" stroke-miterlimit="10"/>
<path d="M75.1756 56.1168H68.7781C64.2084 56.1168 60.5527 52.4433 60.5527 47.8515V41.3081H67.0645C71.6341 41.3081 75.2898 44.9816 75.2898 49.5734V56.1168H75.1756Z" stroke="#1C49FA" stroke-width="3" stroke-miterlimit="10"/>
<path d="M75.1758 31.8946H81.6875C86.2571 31.8946 89.9128 28.2211 89.9128 23.6293V17.0859H83.4011C78.8315 17.0859 75.1758 20.7594 75.1758 25.3512V31.8946Z" stroke="#1C49FA" stroke-width="3" stroke-miterlimit="10"/>
<path d="M75.1758 56.1168H81.6875C86.2571 56.1168 89.9128 52.4433 89.9128 47.8515V41.3081H83.4011C78.8315 41.3081 75.1758 44.9816 75.1758 49.5734V56.1168Z" stroke="#1C49FA" stroke-width="3" stroke-miterlimit="10"/>
<path d="M47.0578 23.5146C47.0578 35.1195 37.6976 44.5146 26.1666 44.5146C14.6355 44.5146 5.27539 35.1195 5.27539 23.5146C5.27539 11.9098 14.6355 2.51465 26.1666 2.51465C37.6976 2.51465 47.0578 11.9098 47.0578 23.5146Z" stroke="#1C49FA" stroke-width="3" stroke-miterlimit="10"/>
<path d="M21.1406 31.8948C22.1688 33.1576 23.7682 33.9612 25.4818 33.9612C28.5663 33.9612 31.1938 31.4357 31.1938 28.2214C31.1938 26.3846 30.2799 24.6627 28.909 23.6295C28.1093 23.0556 23.8824 22.252 23.197 21.678C22.0546 20.8744 21.2549 19.3821 21.2549 17.8897C21.2549 15.2494 23.3112 13.1831 25.9387 13.1831C27.5381 13.1831 28.909 13.9867 29.7087 15.1346" stroke="#1C49FA" stroke-width="3" stroke-miterlimit="10"/>
<path d="M26.168 13.1829V9.16504" stroke="#1C49FA" stroke-width="3" stroke-miterlimit="10"/>
<path d="M26.168 37.6346V33.6167" stroke="#1C49FA" stroke-width="3" stroke-miterlimit="10"/>
</g>
<defs>
<clipPath id="clip0_739_338">
<rect width="100.532" height="90" fill="white" transform="translate(0.234375 0.210938)"/>
</clipPath>
</defs>
</svg>
