<?xml version="1.0" encoding="utf-8"?>
<!-- Generator: Adobe Illustrator 21.0.0, SVG Export Plug-In . SVG Version: 6.00 Build 0)  -->
<svg version="1.1" id="Layer_1" xmlns="http://www.w3.org/2000/svg" xmlns:xlink="http://www.w3.org/1999/xlink" x="0px" y="0px"
	 viewBox="0 0 722.4 176" style="enable-background:new 0 0 722.4 176;" xml:space="preserve">
<style type="text/css">
	.st0{fill:#0555C6;}
	.st1{fill:#1C49FA;}
	.st2{fill:#9BC6F8;}
	.st3{fill:#797B81;}
</style>
<g>
	<path class="st0" d="M62.1,55.1L88.6,67l21.3-10.9L109.7,31L62.1,55.1z"/>
	<path class="st1" d="M62.1,126.8l26.5-21.3V67L62.1,55.1V126.8z"/>
	<path d="M158.8,126.8v-21.3H88.6l-26.5,21.3H158.8z"/>
	<path class="st1" d="M158.8,93.9V55.1L132.3,67v4.4L158.8,93.9z"/>
	<path d="M132.3,72.6H108v21.3h50.7l-26.5-22.6V72.6z"/>
	<path class="st2" d="M109.7,31l0.2,25.1L132.3,67l26.5-11.9L109.7,31z"/>
	<path class="st3" d="M317.9,72.1c-15,0-27.2,12.2-27.2,27.2c0,15.1,12.2,27.2,27.2,27.2c15,0,27.2-12.2,27.2-27.2
		C345.1,84.3,333,72.1,317.9,72.1z M317.9,117.2c-10,0-18.3-8.2-18.3-18.3c0-10,8.2-18.3,18.3-18.3c10,0,18.3,8.2,18.3,18.3
		C336.2,109,328,117.2,317.9,117.2z"/>
	<path class="st3" d="M259.6,117.6c-10,0-18.3-8.2-18.3-18.3S249.6,81,259.6,81c6.4,0,12.2,3.2,15.4,8.6l7.5-4.7
		c-5-8.2-13.6-12.9-23.3-12.9c-15,0-27.2,12.2-27.2,27.2s12.2,27.2,27.2,27.2c11.5,0,21.8-7.5,25.8-18.3l-8.6-2.9
		C274.3,112.6,267.5,117.6,259.6,117.6z"/>
	<path class="st3" d="M182.8,126.5h41.3v-10h-31.4v-4c0.4-5.2,3.2-10.3,7.2-13.1c4.4-3.2,10.3-3.2,16.7-0.8l3.6-9.2
		c-9.1-3.6-18.3-2.8-25.4,2c-0.8,0.4-1.2,0.8-2,1.6V65.6h31.4V54.9h-41.3V126.5z"/>
	<path d="M375,55.6v60.3h28l-1.3,10.7h-40.1v-71H375z"/>
	<path d="M424.8,48.1c1.3,1.3,2.2,3.6,2.2,5.8c0,2.2-0.9,4-2.2,5.8c-1.3,1.3-3.6,2.2-5.8,2.2c-2.2,0-4.4-0.9-5.8-2.2
		c-1.3-1.3-2.2-3.6-2.2-5.8c0-2.2,0.9-4,2.2-5.8c1.3-1.8,3.6-2.2,5.8-2.2C421.3,45.9,423.5,46.3,424.8,48.1z M425.7,73.1v53.5h-12.9
		V73.1H425.7z"/>
	<path d="M477.4,77l-4.9,7.6c-4.4-3.1-8.9-4.5-13.4-4.5c-2.7,0-4.5,0.4-5.8,1.3c-1.3,0.9-2.2,2.2-2.2,4c0,1.3,0.4,2.2,0.9,3.1
		c0.4,0.9,1.8,1.8,3.1,2.2c1.8,0.9,4,1.3,7.1,2.2c5.8,1.3,10.2,3.6,12.9,6.2c2.7,2.7,4,6.2,4,10.7c0,5.3-2.2,9.4-6.7,12.5
		c-4.4,3.1-9.8,4.5-16,4.5c-4.5,0-8.5-0.9-12-2.2c-3.6-1.3-6.7-3.1-9.3-5.8l6.7-7.1c4.5,3.6,9.3,5.3,14.7,5.3c3.1,0,5.3-0.4,7.1-1.8
		c1.8-1.3,2.7-2.7,2.7-4.9c0-1.3-0.4-2.7-0.9-3.6c-0.4-0.9-1.8-1.8-3.6-2.2c-1.8-0.4-4.4-1.8-7.6-2.7c-5.3-1.3-9.3-3.6-12-6.2
		c-2.7-2.7-4.9-5.8-4.9-9.8c0-3.1,0.9-5.8,2.7-8c1.8-2.2,4-4,7.1-5.8c3.1-1.3,6.7-2.2,10.7-2.2C465.4,70.3,471.6,72.5,477.4,77z"/>
	<path d="M522.1,122.3c-1.8,1.3-4,2.2-6.2,3.1c-2.2,0.9-4.9,0.9-7.1,0.9c-5.3,0-9.3-1.8-12-4.5c-2.7-3.1-4-7.1-4-12.9V80.4h-8.5
		v-9.4h8.5V57l12.9-1.3v15.4h12.5l-1.3,9.4h-11.1v28.1c0,2.7,0.4,4.5,1.3,5.8s2.2,1.8,4.5,1.8c2.2,0,4-0.4,6.2-1.8L522.1,122.3z"/>
	<path d="M544.7,48.1c1.3,1.3,2.2,3.6,2.2,5.8c0,2.2-0.9,4-2.2,5.8c-1.3,1.3-3.6,2.2-5.8,2.2c-2.2,0-4.4-0.9-5.8-2.2
		c-1.3-1.3-2.2-3.6-2.2-5.8c0-2.2,0.9-4,2.2-5.8c1.3-1.8,3.6-2.2,5.8-2.2C541.6,45.9,543.3,46.3,544.7,48.1z M545.6,73.1v53.5h-12.9
		V73.1H545.6z"/>
	<path d="M594.8,75.7c2.7,2.7,4,6.7,4,12v38.8h-12.9v-37c0-3.1-0.4-5.3-1.8-6.7c-1.3-1.3-2.7-1.8-4.9-1.8c-2.2,0-4.5,0.9-6.2,2.2
		c-1.8,1.3-3.6,3.6-5.3,6.2v37h-12.9V73.1h11.1l0.9,7.1c4.5-5.8,9.8-8.5,16.5-8.5C588.5,71.3,592.1,73.1,594.8,75.7z"/>
	<path d="M661.6,75.7c-3.6,1.3-8.5,1.8-15.6,1.8c3.1,1.3,5.8,3.1,7.6,5.3c1.8,2.2,2.2,4.9,2.2,8.5c0,3.6-0.9,6.7-2.7,9.4
		c-1.8,2.7-4.4,4.9-7.6,6.2c-3.1,1.3-7.1,2.2-11.6,2.2c-2.2,0-4.5-0.4-6.2-0.9c-1.3,0.9-2.2,2.2-2.2,4c0,2.7,2.2,3.6,6.7,3.6h8
		c4,0,7.6,0.4,10.2,1.8c3.1,1.3,5.3,3.1,6.7,5.3c1.8,2.2,2.2,4.9,2.2,8c0,5.3-2.2,9.8-6.7,12.5c-4.5,3.1-11.1,4.5-20,4.5
		c-6.2,0-11.1-0.4-14.7-1.8c-3.6-1.3-6.2-3.1-7.6-5.8c-1.3-2.7-2.2-5.3-2.2-9.4h11.6c0,1.8,0.4,3.6,0.9,4.5c0.9,0.9,1.8,1.8,4,2.2
		c1.8,0.4,4.5,0.9,8,0.9c4.9,0,8.5-0.4,10.2-1.8c1.8-1.3,3.1-3.1,3.1-5.3c0-2.2-0.9-3.6-2.2-4.9c-1.3-1.3-4-1.8-6.7-1.8h-8
		c-4.9,0-8.9-0.9-11.6-3.1c-2.7-2.2-4-4.5-4-7.6c0-1.8,0.4-3.6,1.8-5.3c1.3-1.8,2.7-3.1,4.5-4.5c-3.1-1.8-5.8-3.6-7.1-6.2
		c-1.3-2.7-2.2-5.3-2.2-8.9c0-4,0.9-7.1,2.7-10.3c1.8-3.1,4.5-5.3,8-6.7c3.6-1.8,7.1-2.2,11.6-2.2c5.8,0,10.2-0.4,13.8-1.3
		c3.6-0.9,7.1-2.7,11.1-4.9L661.6,75.7z M626.9,82.9c-1.8,1.8-2.7,4.5-2.7,7.6c0,3.1,0.9,5.8,2.7,7.6c1.8,1.8,4,2.7,7.1,2.7
		c3.1,0,5.3-0.9,7.1-2.7c1.8-1.8,2.2-4.5,2.2-8c0-6.7-3.1-10.3-9.8-10.3C630.9,80.2,628.3,81.1,626.9,82.9z"/>
</g>
</svg>
