<?xml version="1.0" encoding="utf-8"?>
<!-- Generator: Adobe Illustrator 21.0.0, SVG Export Plug-In . SVG Version: 6.00 Build 0)  -->
<svg version="1.1" id="Layer_1" xmlns="http://www.w3.org/2000/svg" xmlns:xlink="http://www.w3.org/1999/xlink" x="0px" y="0px"
	 viewBox="0 0 722.4 176" style="enable-background:new 0 0 722.4 176;" xml:space="preserve">
<style type="text/css">
	.st0{fill:transparent;}
	.st1{fill:#0555C6;}
	.st2{fill:#1C49FA;}
	.st3{fill:#9BC6F8;}
	.st4{fill:#797B81;}
	.st5{fill:#E6E7E8;}
</style>
<rect class="st0" width="722.4" height="176"/>
<g>
	<path class="st1" d="M62.1,57.4l26.4,11.9l21.2-10.8l-0.2-25L62.1,57.4z"/>
	<path class="st2" d="M62.1,128.9l26.4-21.2V69.3L62.1,57.4V128.9z"/>
	<path class="st5" d="M158.4,128.9v-21.2H88.5l-26.4,21.2H158.4z"/>
	<path class="st2" d="M158.4,96.2V57.4L132,69.3v4.4L158.4,96.2z"/>
	<path class="st5" d="M132,74.9h-24.1v21.2h50.5L132,73.7V74.9z"/>
	<path class="st3" d="M109.6,33.5l0.2,25L132,69.3l26.4-11.9L109.6,33.5z"/>
	<path class="st4" d="M314.1,74.4c-15,0-27.1,12.1-27.1,27.2c0,15,12.1,27.2,27.1,27.2c15,0,27.1-12.1,27.1-27.2
		C341.2,86.5,329.1,74.4,314.1,74.4z M314.1,119.4c-10,0-18.2-8.2-18.2-18.2c0-10,8.2-18.2,18.2-18.2c10,0,18.2,8.2,18.2,18.2
		C332.3,111.2,324.1,119.4,314.1,119.4z"/>
	<path class="st4" d="M256,119.8c-10,0-18.2-8.2-18.2-18.2S246,83.3,256,83.3c6.4,0,12.1,3.2,15.3,8.6l7.5-4.6
		c-5-8.2-13.6-12.9-23.2-12.9c-15,0-27.1,12.1-27.1,27.2s12.1,27.2,27.1,27.2c11.4,0,21.8-7.5,25.7-18.2l-8.6-2.9
		C270.6,114.8,263.8,119.8,256,119.8z"/>
	<path class="st4" d="M179.4,128.7h41.2v-9.9h-31.3v-4c0.4-5.2,3.2-10.3,7.1-13.1c4.4-3.2,10.3-3.2,16.6-0.8l3.6-9.1
		c-9.1-3.6-18.2-2.8-25.4,2c-0.8,0.4-1.2,0.8-2,1.6V68h31.3V57.3h-41.2V128.7z"/>
	<path class="st5" d="M375.9,58.9V118h27.9l-1.3,10.7h-39.9V58.9H375.9z"/>
	<path class="st5" d="M425.6,50.5c1.3,1.3,2.2,3.6,2.2,5.8c0,2.2-0.9,4-2.2,5.8c-1.3,1.3-3.5,2.2-5.8,2.2c-2.2,0-4.4-0.9-5.8-2.2
		s-2.2-3.6-2.2-5.8c0-2.2,0.9-4,2.2-5.8c1.3-1.8,3.5-2.2,5.8-2.2C422.1,48.3,424.3,48.7,425.6,50.5z M426.5,75.4v53.3h-12.9V75.4
		H426.5z"/>
	<path class="st5" d="M478,79.3l-4.9,7.6c-4.4-3.1-8.9-4.4-13.3-4.4c-2.7,0-4.4,0.4-5.8,1.3c-1.3,0.9-2.2,2.2-2.2,4
		c0,1.3,0.4,2.2,0.9,3.1c0.4,0.9,1.8,1.8,3.1,2.2c1.8,0.9,4,1.3,7.1,2.2c5.8,1.3,10.2,3.6,12.9,6.2c2.7,2.7,4,6.2,4,10.7
		c0,5.3-2.2,9.3-6.7,12.4c-4.4,3.1-9.8,4.4-16,4.4c-4.4,0-8.4-0.9-12-2.2c-3.5-1.3-6.7-3.1-9.3-5.8l6.7-7.1
		c4.4,3.6,9.3,5.3,14.6,5.3c3.1,0,5.3-0.4,7.1-1.8c1.8-1.3,2.7-2.7,2.7-4.9c0-1.3-0.4-2.7-0.9-3.6c-0.4-0.9-1.8-1.8-3.5-2.2
		c-1.8-0.4-4.4-1.8-7.5-2.7c-5.3-1.3-9.3-3.6-12-6.2c-2.7-2.7-4.9-5.8-4.9-9.8c0-3.1,0.9-5.8,2.7-8c1.8-2.2,4-4,7.1-5.8
		c3.1-1.3,6.7-2.2,10.6-2.2C466,72.6,472.2,74.8,478,79.3z"/>
	<path class="st5" d="M520.6,124.5c-1.8,1.3-4,2.2-6.2,3.1c-2.2,0.9-4.9,0.9-7.1,0.9c-5.3,0-9.3-1.8-12-4.4c-2.7-3.1-4-7.1-4-12.9
		V82.7h-8.4v-9.3h8.4v-12l12.9-1.3v13.3h12.4l-1.3,9.3h-11.1v28c0,2.7,0.4,4.4,1.3,5.8c0.9,1.3,2.2,1.8,4.4,1.8c2.2,0,4-0.4,6.2-1.8
		L520.6,124.5z"/>
	<path class="st5" d="M540.1,50.5c1.3,1.3,2.2,3.6,2.2,5.8c0,2.2-0.9,4-2.2,5.8c-1.3,1.3-3.5,2.2-5.8,2.2s-4.4-0.9-5.8-2.2
		s-2.2-3.6-2.2-5.8c0-2.2,0.9-4,2.2-5.8c1.3-1.8,3.5-2.2,5.8-2.2C537,48.3,538.8,48.7,540.1,50.5z M541,75.4v53.3h-12.9V75.4H541z"
		/>
	<path class="st5" d="M596,78c2.7,2.7,4,6.7,4,12v38.7h-12.9V91.8c0-3.1-0.4-5.3-1.8-6.7c-1.3-1.3-2.7-1.8-4.9-1.8s-4.4,0.9-6.2,2.2
		c-1.8,1.3-3.5,3.6-5.3,6.2v36.9h-12.9V75.4h11.1l0.9,7.1c4.4-5.8,9.8-8.4,16.4-8.4C589.8,73.6,593.3,75.4,596,78z"/>
	<path class="st5" d="M661.6,78c-3.5,1.3-8.4,1.8-15.5,1.8c3.1,1.3,5.8,3.1,7.5,5.3c1.8,2.2,2.2,4.9,2.2,8.4c0,3.6-0.9,6.7-2.7,9.3
		c-1.8,2.7-4.4,4.9-7.5,6.2c-3.1,1.3-7.1,2.2-11.5,2.2c-2.2,0-4.4-0.4-6.2-0.9c-1.3,0.9-2.2,2.2-2.2,4c0,2.7,2.2,3.6,6.7,3.6h8
		c4,0,7.5,0.4,10.2,1.8c3.1,1.3,5.3,3.1,6.7,5.3c1.8,2.2,2.2,4.9,2.2,8c0,5.3-2.2,9.8-6.7,12.4c-4.4,3.1-11.1,4.4-20,4.4
		c-6.2,0-11.1-0.4-14.6-1.8c-3.5-1.3-6.2-3.1-7.5-5.8c-1.3-2.7-2.2-5.3-2.2-9.3h11.5c0,1.8,0.4,3.6,0.9,4.4c0.9,0.9,1.8,1.8,4,2.2
		c1.8,0.4,4.4,0.9,8,0.9c4.9,0,8.4-0.4,10.2-1.8c1.8-1.3,3.1-3.1,3.1-5.3c0-2.2-0.9-3.6-2.2-4.9c-1.3-1.3-4-1.8-6.7-1.8h-8
		c-4.9,0-8.9-0.9-11.5-3.1c-2.7-2.2-4-4.4-4-7.6c0-1.8,0.4-3.6,1.8-5.3c1.3-1.8,2.7-3.1,4.4-4.4c-3.1-1.8-5.8-3.6-7.1-6.2
		c-1.3-2.7-2.2-5.3-2.2-8.9c0-4,0.9-7.1,2.7-10.2c1.8-3.1,4.4-5.3,8-6.7c3.5-1.8,7.1-2.2,11.5-2.2c5.8,0,10.2-0.4,13.8-1.3
		c3.5-0.9,7.1-2.7,11.1-4.9L661.6,78z M627,85.1c-1.8,1.8-2.7,4.4-2.7,7.6c0,3.1,0.9,5.8,2.7,7.6c1.8,1.8,4,2.7,7.1,2.7
		s5.3-0.9,7.1-2.7c1.8-1.8,2.2-4.4,2.2-8c0-6.7-3.1-10.2-9.8-10.2C631,82.5,628.4,83.4,627,85.1z"/>
</g>
</svg>
