<svg width="177" height="141" viewBox="0 0 177 141" fill="none" xmlns="http://www.w3.org/2000/svg">
<path opacity="0.2" d="M62.0275 13.0794C50.6558 21.0667 41.8686 34.5268 35.6658 53.4598C33.7459 59.3763 32.5645 65.2189 32.1214 70.9875H34.1151C49.179 70.9875 59.7384 78.0134 65.7935 92.0651C67.5657 96.3546 68.4518 101.088 68.4518 106.265C68.4518 116.323 65.2028 124.532 58.7046 130.892C52.2065 137.105 45.3392 140.211 38.1026 140.211C25.4018 140.211 15.8761 136.365 9.52566 128.674C3.17522 120.982 0 111.146 0 99.165C0 78.9008 5.39049 59.2284 16.1715 40.1475C27.1001 20.9188 38.5457 7.60661 50.5081 0.210938L62.0275 13.0794ZM170.576 13.0794C159.204 21.0667 150.417 34.5268 144.214 53.4598C142.294 59.3763 141.113 65.2189 140.67 70.9875H142.663C157.727 70.9875 168.287 78.0134 174.342 92.0651C176.114 96.3546 177 101.088 177 106.265C177 116.323 173.751 124.532 167.253 130.892C160.755 137.105 153.887 140.211 146.651 140.211C133.95 140.211 124.424 136.365 118.074 128.674C111.723 120.982 108.548 111.146 108.548 99.165C108.548 78.9008 113.939 59.2284 124.72 40.1475C135.648 20.9188 147.094 7.60661 159.056 0.210938L170.576 13.0794Z" fill="#1C49FA"/>
</svg>
