<svg width="111" height="91" viewBox="0 0 111 91" fill="none" xmlns="http://www.w3.org/2000/svg">
<g clip-path="url(#clip0_739_364)">
<path d="M17.7754 78.1105V8.98926H92.749V78.1105" stroke="#1C49FA" stroke-width="4"/>
<path d="M71.5543 24.5693V61.1071H60.1659V48.6906H50.9919V61.1071H39.6035V33.1897" stroke="#1C49FA" stroke-width="4"/>
<path d="M32.8809 39.2793L55.5786 21.564L78.2763 39.2793" stroke="#1C49FA" stroke-width="4"/>
<path d="M107.855 77.7942V9.38475C107.855 5.19318 104.455 1.79248 100.263 1.79248C96.0715 1.79248 92.6708 5.19318 92.6708 9.38475V75.5007C92.6708 76.3707 93.7781 76.687 94.2526 76.0543C95.8343 73.9981 98.286 72.7327 101.133 72.97C105.008 73.2072 108.093 76.3707 108.409 80.2459C108.725 84.4375 105.72 87.9963 101.766 88.629L100.975 88.7081H10.0259C5.8343 88.7081 2.43359 85.3074 2.43359 81.1159C2.43359 76.9243 5.8343 73.5236 10.0259 73.5236C13.3475 73.5236 15.5619 75.1844 16.9064 78.1106H17.7763V9.38475C17.7763 5.19318 14.3756 1.79248 10.184 1.79248C5.99247 1.79248 2.59177 5.19318 2.59177 9.38475V82.3021" stroke="#1C49FA" stroke-width="4"/>
<path d="M28.9277 74.1562H81.5991" stroke="#1C49FA" stroke-width="4"/>
<path d="M81.5996 67.4341V80.1669" stroke="#1C49FA" stroke-width="4"/>
<path d="M28.9277 67.4341V80.1669" stroke="#1C49FA" stroke-width="4"/>
</g>
<defs>
<clipPath id="clip0_739_364">
<rect width="109.297" height="90" fill="white" transform="translate(0.851562 0.210938)"/>
</clipPath>
</defs>
</svg>
