<svg width="107" height="91" viewBox="0 0 107 91" fill="none" xmlns="http://www.w3.org/2000/svg">
<g clip-path="url(#clip0_739_386)">
<path d="M51.2037 84.2986H9.21821C5.21647 84.2986 2.00195 81.0796 2.00195 77.0723V15.3205C2.00195 11.3132 5.21647 8.09424 9.21821 8.09424H65.3739" stroke="#1C49FA" stroke-width="4"/>
<path d="M100.406 15.3203V37.9189" stroke="#1C49FA" stroke-width="4"/>
<path d="M2.00195 38.9702V25.8315C2.00195 21.8242 5.21647 18.6052 9.21822 18.6052H55.3367C58.092 18.6052 60.5849 17.0286 61.7657 14.5322L65.7019 6.25483C67.0795 3.36432 69.966 1.5249 73.1805 1.5249H93.1893C97.191 1.5249 100.406 4.74388 100.406 8.75118V21.8899" stroke="#1C49FA" stroke-width="4"/>
<path d="M12.498 30.4302H32.8348" stroke="#1C49FA" stroke-width="4"/>
<path d="M12.498 40.2842H32.8348" stroke="#1C49FA" stroke-width="4"/>
<path d="M81.0523 60.7803C94.2767 60.7803 104.997 56.3391 104.997 50.8606C104.997 45.3821 94.2767 40.9409 81.0523 40.9409C67.8279 40.9409 57.1074 45.3821 57.1074 50.8606C57.1074 56.3391 67.8279 60.7803 81.0523 60.7803Z" stroke="#1C49FA" stroke-width="4"/>
<path d="M104.997 64.9189C104.997 70.4372 94.304 74.8387 81.0523 74.8387C67.8006 74.8387 57.1074 70.4372 57.1074 64.9189" stroke="#1C49FA" stroke-width="4"/>
<path d="M104.997 78.9775C104.997 84.4958 94.304 88.8972 81.0523 88.8972C67.8006 88.8972 57.1074 84.4301 57.1074 78.9775" stroke="#1C49FA" stroke-width="4"/>
<path d="M104.998 50.2695V80.6856" stroke="#1C49FA" stroke-width="4"/>
<path d="M57.1074 80.6856V50.2695" stroke="#1C49FA" stroke-width="4"/>
<path d="M17.2227 70.7656C18.2723 72.0137 19.7811 72.8021 21.5524 72.8021C24.7013 72.8021 27.1942 70.24 27.1942 67.1524C27.1942 65.313 26.2758 63.605 24.8981 62.6196C24.0453 62.0283 19.9124 61.1743 19.1907 60.6488C18.0099 59.7948 17.2227 58.4152 17.2227 56.8385C17.2227 54.2765 19.3219 52.1743 21.8804 52.1743C23.4549 52.1743 24.7669 52.8969 25.6198 54.0794" stroke="#1C49FA" stroke-width="4"/>
<path d="M22.209 52.1087V46.1963" stroke="#1C49FA" stroke-width="4"/>
<path d="M22.209 79.0432V72.4082" stroke="#1C49FA" stroke-width="4"/>
</g>
<defs>
<clipPath id="clip0_739_386">
<rect width="105.62" height="90" fill="white" transform="translate(0.689453 0.210938)"/>
</clipPath>
</defs>
</svg>
