<svg width="207" height="164" viewBox="0 0 207 164" fill="none" xmlns="http://www.w3.org/2000/svg">
<path opacity="0.2" d="M134.459 148.228C147.758 138.929 158.035 123.257 165.289 101.214C167.534 94.3256 168.916 87.5231 169.434 80.8068L167.103 80.8068C149.486 80.8068 137.136 72.6267 130.055 56.2664C127.982 51.2722 126.946 45.7614 126.946 39.7339C126.946 28.0234 130.746 18.4656 138.345 11.0604C145.945 3.82743 153.976 0.210948 162.439 0.210949C177.293 0.21095 188.433 4.68851 195.86 13.6436C203.287 22.5987 207 34.0509 207 48.0002C207 71.5934 200.696 94.4978 188.088 116.713C175.307 139.101 161.921 154.6 147.931 163.211L134.459 148.228ZM7.51314 148.228C20.8123 138.929 31.0889 123.257 38.3429 101.214C40.5882 94.3256 41.97 87.5231 42.4881 80.8068L40.1564 80.8068C22.5394 80.8068 10.1902 72.6267 3.10888 56.2664C1.0363 51.2722 -4.99102e-06 45.7614 -4.46409e-06 39.7339C-3.44032e-06 28.0234 3.79976 18.4656 11.3993 11.0604C18.9987 3.82742 27.03 0.210937 35.4931 0.210938C50.3467 0.210939 61.4869 4.68849 68.9136 13.6436C76.3404 22.5987 80.0538 34.0509 80.0538 48.0002C80.0538 71.5934 73.7497 94.4978 61.1414 116.713C48.3604 139.101 34.975 154.6 20.985 163.211L7.51314 148.228Z" fill="#1C49FA"/>
</svg>
