<svg width="125" height="91" viewBox="0 0 125 91" fill="none" xmlns="http://www.w3.org/2000/svg">
<g clip-path="url(#clip0_687_654)">
<path d="M123.861 71.6118C82.8805 95.8007 42.1192 95.8007 1.13867 71.6118V25.8491C42.1192 51.5634 82.8805 51.5634 123.861 25.8491V71.6118Z" stroke="#1C49FA" stroke-width="4" stroke-miterlimit="10"/>
<path d="M1.13867 71.6121V19.3118C4.20673 8.41595 12.096 2.53217 25.2448 1.87842V38.9244" stroke="#1C49FA" stroke-width="4" stroke-miterlimit="10"/>
<path d="M123.86 25.8494V19.3118C120.792 8.41595 112.903 2.53217 99.7539 1.87842V38.9244" stroke="#1C49FA" stroke-width="4" stroke-miterlimit="10"/>
<path d="M55.9258 51.9995V78.5855L76.5256 65.2925L55.9258 51.9995Z" stroke="#1C49FA" stroke-width="4" stroke-miterlimit="10"/>
<path d="M48.2561 17.5685C48.2561 21.0551 46.2838 23.2343 40.3669 29.336H48.6944L48.4753 30.6435H38.6137V29.336C45.1881 22.3626 46.7221 20.6193 46.7221 17.5685C46.7221 15.6072 45.4072 14.2997 43.4349 14.2997C41.6817 14.2997 40.586 14.9534 39.4903 16.261L38.3945 15.3893C39.7094 13.6459 41.2434 12.9922 43.4349 12.9922C46.503 12.9922 48.2561 14.9534 48.2561 17.5685Z" fill="#1C49FA"/>
<path d="M60.5284 26.0672V30.6435H58.9944V26.0672H51.3242V24.9777L56.5837 12.9922L57.8986 13.428L52.8582 24.7597H58.7752L59.2135 19.7476H60.5284V24.7597H62.939V26.0672H60.5284Z" fill="#1C49FA"/>
<path d="M67.5414 33.2587L66.2266 32.8229L72.3627 9.72363L73.6776 9.94155L67.5414 33.2587Z" fill="#1C49FA"/>
<path d="M80.4716 30.8618L79.1567 30.4259L85.9502 14.518H77.8418V13.2104H87.7034V14.3L80.4716 30.8618Z" fill="#1C49FA"/>
</g>
<defs>
<clipPath id="clip0_687_654">
<rect width="124.914" height="90" fill="white" transform="translate(0.0429688 0.789062)"/>
</clipPath>
</defs>
</svg>
