<svg width="318" height="114" viewBox="0 0 318 114" fill="none" xmlns="http://www.w3.org/2000/svg">
<path d="M20 38.5278L40.4304 47.7111L56.8391 39.3333L56.6783 20L20 38.5278Z" fill="#05C69F"/>
<path d="M20 93.7889L40.4304 77.3556V47.7112L20 38.5278V93.7889Z" fill="#09A148"/>
<path d="M94.4826 93.7888V77.3555H40.4304L20 93.7888H94.4826Z" fill="#025024"/>
<path d="M94.4832 68.4945V38.5278L74.0527 47.7112V51.0945L94.4832 68.4945Z" fill="#09A148"/>
<path d="M74.0515 52.0611H55.3906V68.4945H94.4819L74.0515 51.0945V52.0611Z" fill="#025024"/>
<path d="M56.6777 20L56.8386 39.3333L74.0517 47.7111L94.4821 38.5278L56.6777 20Z" fill="#9BF8B9"/>
<path d="M165.039 47.7112C158.282 47.7112 152.812 53.189 152.812 59.9556C152.812 66.7223 158.282 72.2001 165.039 72.2001C171.795 72.2001 177.265 66.7223 177.265 59.9556C177.265 53.189 171.795 47.7112 165.039 47.7112ZM165.039 68.0112C160.534 68.0112 156.834 64.3056 156.834 59.7945C156.834 55.2834 160.534 51.5779 165.039 51.5779C169.543 51.5779 173.243 55.2834 173.243 59.7945C173.243 64.3056 169.543 68.0112 165.039 68.0112Z" fill="#A3A5A9"/>
<path d="M138.817 68.0112C134.312 68.0112 130.612 64.3056 130.612 59.7945C130.612 55.2834 134.312 51.5778 138.817 51.5778C141.712 51.5778 144.286 53.0278 145.734 55.4445L149.112 53.35C146.86 49.6445 142.999 47.55 138.656 47.55C131.899 47.55 126.43 53.0278 126.43 59.7945C126.43 66.5612 131.899 72.0389 138.656 72.0389C143.804 72.0389 148.469 68.6556 150.238 63.8223L146.378 62.5334C145.412 65.7556 142.356 68.0112 138.817 68.0112Z" fill="#A3A5A9"/>
<path d="M106.482 70.5889H123.213V66.5611H110.504V64.95C110.665 62.8555 111.791 60.7611 113.4 59.6333C115.169 58.3444 117.582 58.3444 120.156 59.3111L121.604 55.6055C117.904 54.1555 114.204 54.4778 111.309 56.4111C110.987 56.5722 110.826 56.7333 110.504 57.0555V45.9389H123.213V41.5889H106.482V70.5889Z" fill="#A3A5A9"/>
<path d="M194.092 42.314V63.7417H204.226L203.744 67.6084H189.266V42.314H194.092Z" fill="#212121"/>
<path d="M212.11 39.2528C212.593 39.7362 212.914 40.5417 212.914 41.3473C212.914 42.1528 212.593 42.7973 212.11 43.4417C211.627 43.925 210.823 44.2473 210.019 44.2473C209.214 44.2473 208.41 43.925 207.927 43.4417C207.445 42.9584 207.123 42.1528 207.123 41.3473C207.123 40.5417 207.445 39.8973 207.927 39.2528C208.41 38.6084 209.214 38.4473 210.019 38.4473C210.823 38.4473 211.627 38.6084 212.11 39.2528ZM212.432 48.275V67.6084H207.767V48.275H212.432Z" fill="#212121"/>
<path d="M231.091 50.0473L229.322 52.7861C227.713 51.6584 226.104 51.175 224.496 51.175C223.53 51.175 222.887 51.3361 222.404 51.6584C221.922 51.9806 221.6 52.4639 221.6 53.1084C221.6 53.5917 221.761 53.9139 221.922 54.2362C222.083 54.5584 222.565 54.8806 223.048 55.0417C223.691 55.3639 224.496 55.525 225.622 55.8473C227.713 56.3306 229.322 57.1361 230.287 58.1028C231.252 59.0695 231.735 60.3584 231.735 61.9695C231.735 63.9028 230.93 65.3528 229.322 66.4806C227.713 67.6084 225.783 68.0917 223.53 68.0917C221.922 68.0917 220.474 67.7695 219.187 67.2861C217.9 66.8028 216.774 66.1584 215.809 65.1917L218.222 62.6139C219.83 63.9028 221.6 64.5473 223.53 64.5473C224.656 64.5473 225.461 64.3862 226.104 63.9028C226.748 63.4195 227.069 62.9361 227.069 62.1306C227.069 61.6473 226.909 61.1639 226.748 60.8417C226.587 60.5195 226.104 60.1973 225.461 60.0361C224.817 59.875 223.852 59.3917 222.726 59.0695C220.796 58.5862 219.348 57.7806 218.383 56.8139C217.417 55.8473 216.613 54.7195 216.613 53.2695C216.613 52.1417 216.935 51.175 217.578 50.3695C218.222 49.5639 219.026 48.9195 220.152 48.275C221.278 47.7917 222.565 47.4695 224.013 47.4695C226.748 47.6306 229 48.4361 231.091 50.0473Z" fill="#212121"/>
<path d="M246.535 66.8028C245.892 67.2861 245.087 67.6083 244.283 67.9305C243.479 68.2528 242.514 68.2528 241.709 68.2528C239.779 68.2528 238.331 67.6083 237.366 66.6417C236.4 65.5139 235.918 64.0639 235.918 61.9694V51.6583H232.861V48.275H235.918V43.925L240.583 43.4417V48.275H245.087L244.605 51.6583H240.583V61.8083C240.583 62.775 240.744 63.4194 241.066 63.9028C241.387 64.3861 241.87 64.5472 242.674 64.5472C243.479 64.5472 244.122 64.3861 244.927 63.9028L246.535 66.8028Z" fill="#212121"/>
<path d="M253.614 39.2528C254.097 39.7362 254.418 40.5417 254.418 41.3473C254.418 42.1528 254.097 42.7973 253.614 43.4417C253.131 43.925 252.327 44.2473 251.523 44.2473C250.718 44.2473 249.914 43.925 249.431 43.4417C248.949 42.9584 248.627 42.1528 248.627 41.3473C248.627 40.5417 248.949 39.8973 249.431 39.2528C249.914 38.6084 250.718 38.4473 251.523 38.4473C252.488 38.4473 253.131 38.6084 253.614 39.2528ZM253.936 48.275V67.6084H249.27V48.275H253.936Z" fill="#212121"/>
<path d="M273.883 49.2418C274.848 50.2084 275.33 51.6584 275.33 53.5918V67.6084H270.665V54.2362C270.665 53.1084 270.504 52.3029 270.022 51.8195C269.539 51.3362 269.056 51.1751 268.252 51.1751C267.448 51.1751 266.643 51.4973 266 51.9806C265.356 52.464 264.713 53.2695 264.07 54.2362V67.6084H259.404V48.2751H263.426L263.748 50.8529C265.356 48.7584 267.287 47.7918 269.7 47.7918C271.63 47.6307 272.917 48.2751 273.883 49.2418Z" fill="#212121"/>
<path d="M297.691 49.2416C296.404 49.7249 294.635 49.886 292.061 49.886C293.187 50.3694 294.152 51.0138 294.795 51.8194C295.439 52.6249 295.6 53.5916 295.6 54.8805C295.6 56.1694 295.278 57.2972 294.635 58.2638C293.991 59.2305 293.026 60.036 291.9 60.5194C290.774 61.0027 289.326 61.3249 287.717 61.3249C286.913 61.3249 286.108 61.1638 285.465 61.0027C284.982 61.3249 284.661 61.8083 284.661 62.4527C284.661 63.4194 285.465 63.7416 287.074 63.7416H289.969C291.417 63.7416 292.704 63.9027 293.669 64.386C294.795 64.8694 295.6 65.5138 296.082 66.3194C296.726 67.1249 296.887 68.0916 296.887 69.2194C296.887 71.1527 296.082 72.7638 294.474 73.7305C292.865 74.8583 290.452 75.3416 287.235 75.3416C284.982 75.3416 283.213 75.1805 281.926 74.6972C280.639 74.2138 279.674 73.5694 279.191 72.6027C278.708 71.636 278.387 70.6694 278.387 69.2194H282.569C282.569 69.8638 282.73 70.5083 282.891 70.8305C283.213 71.1527 283.535 71.4749 284.339 71.636C284.982 71.7972 285.948 71.9583 287.235 71.9583C289.004 71.9583 290.291 71.7972 290.935 71.3138C291.578 70.8305 292.061 70.186 292.061 69.3805C292.061 68.5749 291.739 68.0916 291.256 67.6083C290.774 67.1249 289.808 66.9638 288.843 66.9638H285.948C284.178 66.9638 282.73 66.6416 281.765 65.836C280.8 65.0305 280.317 64.2249 280.317 63.0972C280.317 62.4527 280.478 61.8083 280.961 61.1638C281.443 60.5194 281.926 60.036 282.569 59.5527C281.443 58.9083 280.478 58.2638 279.995 57.2972C279.513 56.3305 279.191 55.3638 279.191 54.0749C279.191 52.6249 279.513 51.4972 280.156 50.3694C280.8 49.2416 281.765 48.436 283.052 47.9527C284.339 47.3083 285.626 47.1472 287.235 47.1472C289.326 47.1472 290.935 46.986 292.222 46.6638C293.508 46.3416 294.795 45.6972 296.243 44.8916L297.691 49.2416ZM285.143 51.8194C284.5 52.4638 284.178 53.4305 284.178 54.5583C284.178 55.686 284.5 56.6527 285.143 57.2972C285.787 57.9416 286.591 58.2638 287.717 58.2638C288.843 58.2638 289.648 57.9416 290.291 57.2972C290.935 56.6527 291.095 55.686 291.095 54.3972C291.095 51.9805 289.969 50.6916 287.556 50.6916C286.591 50.8527 285.626 51.1749 285.143 51.8194Z" fill="#212121"/>
</svg>
